<svg id="Layer_1" data-name="Layer 1" xmlns="http://www.w3.org/2000/svg" viewBox="0 0 24.94 29.1"><defs><style>.cls-1{fill:#0bf4ef;}.cls-2{fill:none;}.cls-3,.cls-4{isolation:isolate;}.cls-4{font-size:6px;font-family:ArialNarrow, Arial;}</style></defs><title>AiIcon</title><path class="cls-1" d="M24.9,6.2l-6-6a.52.52,0,0,0-.4-.2H3.9A1.9,1.9,0,0,0,2,1.9H2v9.7a.47.47,0,0,0,.44.5H2.5a.47.47,0,0,0,.5-.44V2a.9.9,0,0,1,.9-.9H18V6.6a.47.47,0,0,0,.44.5H24V27.2a.9.9,0,0,1-.9.9H3.9a.9.9,0,0,1-.9-.9H3V24.6a.47.47,0,0,0-.44-.5H2.5a.47.47,0,0,0-.5.44V27.2a1.9,1.9,0,0,0,1.9,1.9H23a1.9,1.9,0,0,0,1.9-1.9V6.6C25,6.5,24.9,6.3,24.9,6.2ZM19,1.8l4.3,4.3H19Z" transform="translate(0 0)"/><path class="cls-1" d="M21,21.5V14.7a1.58,1.58,0,0,0-1.56-1.6H1.6A1.58,1.58,0,0,0,0,14.66v0H0v6.8a1.58,1.58,0,0,0,1.56,1.6H19.4A1.58,1.58,0,0,0,21,21.54Z" transform="translate(0 0)"/><rect class="cls-2" x="0.8" y="15.6" width="19.4" height="5.9"/><g class="cls-3"><text class="cls-4" transform="translate(2 20.15)">Ai</text><text class="cls-3"/></g></svg>