<svg id="Layer_1" data-name="Layer 1" xmlns="http://www.w3.org/2000/svg" viewBox="0 0 24.94 29.1"><defs><style>.cls-1{fill:#0bf4ef;}.cls-2{fill:none;}.cls-3{isolation:isolate;font-size:6px;font-family:ArialMT, Arial;}.cls-4{letter-spacing:-0.02em;}</style></defs><title>UNITYIcon</title><path class="cls-1" d="M27.4,7.6l-6-6a.52.52,0,0,0-.4-.2H6.4A1.9,1.9,0,0,0,4.5,3.3V13a.47.47,0,0,0,.5.5.47.47,0,0,0,.5-.5V3.4a.9.9,0,0,1,.9-.9H20.5V8a.47.47,0,0,0,.5.5h5.5V28.6a.9.9,0,0,1-.9.9H6.4a.9.9,0,0,1-.9-.9h0V26a.47.47,0,0,0-.5-.5.47.47,0,0,0-.5.5v2.6a1.9,1.9,0,0,0,1.9,1.9H25.5a1.9,1.9,0,0,0,1.9-1.9V8C27.5,7.9,27.4,7.7,27.4,7.6ZM21.5,3.2l4.3,4.3H21.5Z" transform="translate(-2.5 -1.4)"/><path class="cls-1" d="M23.5,22.9V16.1a1.58,1.58,0,0,0-1.6-1.6H4.1a1.58,1.58,0,0,0-1.6,1.6h0v6.8a1.58,1.58,0,0,0,1.6,1.6H21.9a1.58,1.58,0,0,0,1.6-1.6Z" transform="translate(-2.5 -1.4)"/><rect class="cls-2" x="0.8" y="15.6" width="19.4" height="5.9"/><text class="cls-3" transform="translate(1.5 19.93)">UNIT<tspan class="cls-4" x="14" y="0">Y</tspan></text></svg>